<svg width="487" height="488" viewBox="0 0 487 488" fill="none" xmlns="http://www.w3.org/2000/svg">
<mask id="mask0" mask-type="alpha" maskUnits="userSpaceOnUse" x="39" y="54" width="414" height="414">
<circle cx="246" cy="261" r="207" fill="white"/>
</mask>
<g mask="url(#mask0)">
<circle cx="246" cy="261" r="207" fill="#DC6A9A"/>
<path d="M143.152 248.744C136.208 248.744 129.967 247.463 124.428 244.9C118.889 242.337 114.467 238.576 111.16 233.616C107.936 228.573 106.324 222.497 106.324 215.388C106.324 210.428 107.192 205.055 108.928 199.268C112.731 186.868 118.476 177.94 126.164 172.484C133.852 166.945 142.077 164.176 150.84 164.176C155.552 164.176 159.727 164.879 163.364 166.284C167.001 167.689 170.349 169.715 173.408 172.36L176.756 169.756C178.988 168.02 180.848 166.821 182.336 166.16C183.907 165.499 185.643 165.168 187.544 165.168C189.611 165.168 191.264 165.623 192.504 166.532C193.744 167.441 194.364 168.764 194.364 170.5C194.364 171.409 194.199 172.319 193.868 173.228L186.924 192.572C186.18 194.804 185.271 196.375 184.196 197.284C183.204 198.193 181.675 198.648 179.608 198.648C177.459 198.648 175.681 197.904 174.276 196.416C172.953 194.845 171.424 192.2 169.688 188.48C167.704 184.595 166.092 182.032 164.852 180.792C163.612 179.552 161.793 178.932 159.396 178.932C156.007 178.932 152.741 181.04 149.6 185.256C146.459 189.389 143.607 195.631 141.044 203.98C138.895 211.007 137.82 216.876 137.82 221.588C137.82 225.721 138.605 228.821 140.176 230.888C141.747 232.872 143.855 233.864 146.5 233.864C150.385 233.864 153.568 232.996 156.048 231.26C158.611 229.524 161.215 227.168 163.86 224.192C165.513 222.373 166.836 221.051 167.828 220.224C168.903 219.315 170.019 218.86 171.176 218.86C172.664 218.86 174.235 219.604 175.888 221.092C177.541 222.58 178.327 224.068 178.244 225.556C178.327 227.375 176.839 230.185 173.78 233.988C170.804 237.791 166.629 241.221 161.256 244.28C155.965 247.256 149.931 248.744 143.152 248.744ZM293.021 165.416C294.757 165.416 296.079 165.705 296.989 166.284C297.981 166.863 298.477 167.607 298.477 168.516C298.477 168.929 298.353 169.467 298.105 170.128C297.857 170.707 297.485 171.244 296.989 171.74C296.575 172.153 296.162 172.484 295.749 172.732C295.418 172.897 295.17 173.063 295.005 173.228C293.682 173.972 292.607 174.799 291.781 175.708C290.954 176.617 290.251 178.023 289.673 179.924L274.421 233.368C274.09 234.443 273.925 235.476 273.925 236.468C273.925 237.46 274.049 238.245 274.297 238.824C274.627 239.403 275.082 240.147 275.661 241.056C275.743 241.139 275.95 241.469 276.281 242.048C276.694 242.544 276.901 243.081 276.901 243.66C276.901 243.825 276.818 244.239 276.653 244.9C276.239 246.057 275.454 246.884 274.297 247.38C273.139 247.793 271.403 248 269.089 248H239.949C238.213 248 236.849 247.711 235.857 247.132C234.947 246.553 234.493 245.768 234.493 244.776C234.493 244.28 234.617 243.743 234.865 243.164C235.195 242.503 235.65 241.965 236.229 241.552C236.807 241.056 237.386 240.643 237.965 240.312C239.287 239.568 240.362 238.741 241.189 237.832C242.015 236.84 242.718 235.352 243.297 233.368L249.249 212.66H227.301L221.349 233.368C221.018 234.443 220.853 235.476 220.853 236.468C220.853 237.46 220.977 238.245 221.225 238.824C221.555 239.403 222.01 240.147 222.589 241.056C222.671 241.139 222.878 241.469 223.209 242.048C223.622 242.544 223.829 243.081 223.829 243.66C223.829 243.825 223.746 244.239 223.581 244.9C223.167 246.057 222.382 246.884 221.225 247.38C220.067 247.793 218.331 248 216.017 248H186.877C185.141 248 183.818 247.711 182.909 247.132C181.917 246.553 181.421 245.768 181.421 244.776C181.421 244.28 181.545 243.743 181.793 243.164C182.123 242.503 182.578 241.965 183.157 241.552C183.735 241.056 184.314 240.643 184.893 240.312C186.215 239.568 187.29 238.741 188.117 237.832C188.943 236.84 189.646 235.352 190.225 233.368L205.477 179.924C205.807 178.849 205.973 177.816 205.973 176.824C205.973 175.915 205.807 175.171 205.477 174.592C205.229 173.931 204.857 173.187 204.361 172.36C204.03 171.947 203.741 171.533 203.493 171.12C203.245 170.624 203.121 170.128 203.121 169.632C203.121 169.467 203.203 169.053 203.369 168.392C203.699 167.317 204.443 166.573 205.601 166.16C206.758 165.664 208.494 165.416 210.809 165.416H239.949C241.685 165.416 243.007 165.705 243.917 166.284C244.909 166.863 245.405 167.607 245.405 168.516C245.405 168.929 245.281 169.467 245.033 170.128C244.785 170.707 244.413 171.244 243.917 171.74C243.503 172.153 243.09 172.484 242.677 172.732C242.346 172.897 242.098 173.063 241.933 173.228C240.61 173.972 239.535 174.799 238.709 175.708C237.882 176.617 237.179 178.023 236.601 179.924L230.773 200.26H252.721L258.549 179.924C258.879 178.849 259.045 177.816 259.045 176.824C259.045 175.915 258.879 175.171 258.549 174.592C258.301 173.931 257.929 173.187 257.433 172.36C257.102 171.947 256.813 171.533 256.565 171.12C256.317 170.624 256.193 170.128 256.193 169.632C256.193 169.467 256.275 169.053 256.441 168.392C256.771 167.317 257.515 166.573 258.673 166.16C259.83 165.664 261.566 165.416 263.881 165.416H293.021ZM363.823 182.156C365.393 176.452 367.584 172.153 370.395 169.26C373.288 166.367 377.256 164.92 382.299 164.92C386.267 164.92 389.449 166.201 391.847 168.764C394.244 171.244 395.443 174.344 395.443 178.064C395.443 179.304 395.236 180.751 394.823 182.404C393.913 186.041 392.301 188.687 389.987 190.34C387.672 191.911 385.151 192.696 382.423 192.696C381.017 192.696 379.736 192.613 378.579 192.448C377.504 192.2 376.471 191.911 375.479 191.58L368.163 218.488C365.517 228.325 361.095 235.848 354.895 241.056C348.695 246.181 340.263 248.744 329.599 248.744C319.844 248.744 312.239 246.884 306.783 243.164C301.409 239.444 298.723 233.657 298.723 225.804C298.723 222.001 299.384 217.827 300.707 213.28L310.131 179.924C310.461 178.849 310.627 177.816 310.627 176.824C310.627 175.832 310.461 175.047 310.131 174.468C309.883 173.807 309.511 173.063 309.015 172.236C308.271 171.161 307.899 170.293 307.899 169.632C307.899 169.301 307.981 168.888 308.147 168.392C308.477 167.317 309.221 166.573 310.379 166.16C311.536 165.664 313.231 165.416 315.463 165.416H344.603C348.157 165.416 349.935 166.491 349.935 168.64C349.935 169.136 349.893 169.549 349.811 169.88C349.563 170.624 349.191 171.244 348.695 171.74C348.281 172.153 347.62 172.649 346.711 173.228C345.388 173.972 344.313 174.799 343.487 175.708C342.66 176.617 341.957 178.023 341.379 179.924L330.591 217.868C329.847 220.679 329.475 223.076 329.475 225.06C329.475 230.599 332.451 233.368 338.403 233.368C342.04 233.368 345.057 232.211 347.455 229.896C349.935 227.499 352.001 223.448 353.655 217.744L363.823 182.156Z" fill="white"/>
<path d="M196.596 275.416C199.985 275.416 201.68 276.491 201.68 278.64C201.68 279.219 201.639 279.632 201.556 279.88C201.308 280.707 200.936 281.368 200.44 281.864C199.944 282.277 199.241 282.773 198.332 283.352C197.092 284.096 196.059 284.923 195.232 285.832C194.405 286.741 193.703 288.147 193.124 290.048L177.748 345.104C176.343 350.064 174.565 353.536 172.416 355.52C170.349 357.504 167.456 358.496 163.736 358.496C160.429 358.496 157.66 357.545 155.428 355.644C153.279 353.66 151.253 350.643 149.352 346.592L130.628 307.16L120.212 343.368C119.964 344.443 119.84 345.393 119.84 346.22C119.84 347.295 120.005 348.204 120.336 348.948C120.749 349.609 121.287 350.312 121.948 351.056C122.857 352.131 123.312 353.04 123.312 353.784C123.312 354.28 123.271 354.652 123.188 354.9C122.857 356.057 122.113 356.884 120.956 357.38C119.799 357.793 118.063 358 115.748 358H102.232C98.8427 358 97.148 356.925 97.148 354.776C97.148 354.197 97.1893 353.784 97.272 353.536C97.52 352.709 97.892 352.089 98.388 351.676C98.884 351.18 99.5867 350.643 100.496 350.064C101.736 349.32 102.769 348.493 103.596 347.584C104.423 346.675 105.125 345.269 105.704 343.368L121.452 287.692L119.468 283.6C118.641 281.947 118.228 280.5 118.228 279.26C118.228 276.697 119.881 275.416 123.188 275.416H141.54C144.185 275.416 146.169 276.036 147.492 277.276C148.897 278.433 150.385 280.541 151.956 283.6L170.06 319.932L178.616 290.048C178.864 288.891 178.988 287.94 178.988 287.196C178.988 286.121 178.781 285.253 178.368 284.592C178.037 283.848 177.541 283.104 176.88 282.36C175.971 281.285 175.516 280.376 175.516 279.632C175.516 279.136 175.557 278.764 175.64 278.516C175.971 277.359 176.715 276.573 177.872 276.16C179.029 275.664 180.765 275.416 183.08 275.416H196.596ZM284.616 274.92C288.088 274.92 290.981 276.036 293.296 278.268C295.61 280.5 296.768 283.517 296.768 287.32C296.768 291.619 295.486 295.091 292.924 297.736C290.361 300.381 287.302 301.704 283.748 301.704C281.433 301.704 279.449 301.291 277.796 300.464C276.142 299.637 274.572 298.315 273.084 296.496L262.42 305.424L274.448 341.012C275.192 343.079 275.977 344.732 276.804 345.972C277.713 347.212 278.788 348.452 280.028 349.692C280.937 350.601 281.557 351.345 281.888 351.924C282.301 352.42 282.508 353.04 282.508 353.784C282.508 355.107 281.888 356.14 280.648 356.884C279.49 357.628 277.424 358 274.448 358H258.204C254.153 358 251.136 357.132 249.152 355.396C247.25 353.577 245.68 350.601 244.44 346.468L238.24 325.636L234.644 328.612L230.552 343.368C230.221 344.443 230.056 345.476 230.056 346.468C230.056 347.46 230.18 348.287 230.428 348.948C230.758 349.609 231.213 350.312 231.792 351.056C232.536 352.131 232.908 352.999 232.908 353.66C232.908 353.825 232.825 354.239 232.66 354.9C232.329 356.057 231.585 356.884 230.428 357.38C229.27 357.793 227.534 358 225.22 358H196.08C194.344 358 193.021 357.711 192.112 357.132C191.12 356.553 190.624 355.768 190.624 354.776C190.624 354.28 190.748 353.743 190.996 353.164C191.326 352.255 191.864 351.552 192.608 351.056C193.352 350.56 193.806 350.271 193.972 350.188C195.294 349.361 196.369 348.535 197.196 347.708C198.022 346.799 198.725 345.352 199.304 343.368L214.432 289.924C214.762 288.849 214.928 287.816 214.928 286.824C214.928 285.915 214.762 285.171 214.432 284.592C214.184 283.931 213.812 283.187 213.316 282.36C212.572 281.285 212.2 280.417 212.2 279.756C212.2 279.508 212.282 279.053 212.448 278.392C212.778 277.317 213.481 276.573 214.556 276.16C215.713 275.664 217.449 275.416 219.764 275.416H248.904C250.64 275.416 251.962 275.705 252.872 276.284C253.864 276.78 254.36 277.524 254.36 278.516C254.36 278.929 254.236 279.467 253.988 280.128C253.74 280.707 253.368 281.244 252.872 281.74C252.458 282.153 252.045 282.484 251.632 282.732C251.301 282.897 251.053 283.063 250.888 283.228C249.565 283.972 248.49 284.799 247.664 285.708C246.837 286.617 246.134 288.023 245.556 289.924L240.348 308.4L273.208 280.004C275.357 278.185 277.3 276.904 279.036 276.16C280.772 275.333 282.632 274.92 284.616 274.92ZM383.015 274.92C386.652 274.92 389.628 276.119 391.943 278.516C394.257 280.831 395.415 283.807 395.415 287.444C395.415 287.94 395.332 288.849 395.167 290.172C394.505 294.14 392.935 297.075 390.455 298.976C388.057 300.877 385.247 301.828 382.023 301.828C379.873 301.828 378.055 301.497 376.567 300.836C375.079 300.175 373.673 299.059 372.351 297.488L351.891 324.148L346.187 343.368C346.021 343.864 345.939 344.525 345.939 345.352C345.939 346.509 346.228 347.501 346.807 348.328C347.385 349.072 348.212 349.899 349.287 350.808C350.196 351.635 350.857 352.337 351.271 352.916C351.684 353.495 351.767 354.156 351.519 354.9C351.188 356.057 350.361 356.884 349.039 357.38C347.799 357.793 346.063 358 343.831 358H312.583C310.433 358 308.821 357.628 307.747 356.884C306.755 356.057 306.424 354.941 306.755 353.536C306.92 352.792 307.209 352.213 307.623 351.8C308.119 351.304 308.863 350.725 309.855 350.064C311.095 349.32 312.128 348.493 312.955 347.584C313.781 346.592 314.484 345.187 315.062 343.368L320.767 324.024L309.359 291.536C308.532 289.139 307.54 287.32 306.383 286.08C305.308 284.757 304.027 283.476 302.539 282.236C301.629 281.575 300.968 280.996 300.555 280.5C300.141 280.004 299.935 279.425 299.935 278.764C299.935 277.772 300.348 276.987 301.175 276.408C302.084 275.747 303.365 275.416 305.019 275.416H338.127C341.02 275.416 343.004 275.664 344.079 276.16C345.153 276.656 345.732 277.524 345.815 278.764C345.815 279.508 345.649 280.169 345.319 280.748C344.988 281.244 344.492 281.864 343.831 282.608C343.087 283.6 342.508 284.427 342.095 285.088C341.764 285.667 341.599 286.411 341.599 287.32C341.599 287.568 341.681 288.105 341.847 288.932L347.551 310.756L363.299 288.312C366.688 283.517 369.871 280.087 372.847 278.02C375.905 275.953 379.295 274.92 383.015 274.92Z" fill="white"/>
</g>
</svg>
