<svg width="460" height="460" viewBox="0 0 460 460" fill="none" xmlns="http://www.w3.org/2000/svg">
<mask id="mask0" mask-type="alpha" maskUnits="userSpaceOnUse" x="28" y="24" width="414" height="414">
<circle cx="235" cy="231" r="207" fill="white"/>
</mask>
<g mask="url(#mask0)">
<circle cx="235" cy="231" r="207" fill="white"/>
<circle cx="65.5" cy="314.5" r="96.5" fill="#B4ECF9"/>
<circle cx="360" cy="343" r="64" fill="#EFB4F9"/>
<path d="M157.408 225.576C152.032 225.576 147.2 224.584 142.912 222.6C138.624 220.616 135.2 217.704 132.64 213.864C130.144 209.96 128.896 205.256 128.896 199.752C128.896 195.912 129.568 191.752 130.912 187.272C133.856 177.672 138.304 170.76 144.256 166.536C150.208 162.248 156.576 160.104 163.36 160.104C167.008 160.104 170.24 160.648 173.056 161.736C175.872 162.824 178.464 164.392 180.832 166.44L183.424 164.424C185.152 163.08 186.592 162.152 187.744 161.64C188.96 161.128 190.304 160.872 191.776 160.872C193.376 160.872 194.656 161.224 195.616 161.928C196.576 162.632 197.056 163.656 197.056 165C197.056 165.704 196.928 166.408 196.672 167.112L191.296 182.088C190.72 183.816 190.016 185.032 189.184 185.736C188.416 186.44 187.232 186.792 185.632 186.792C183.968 186.792 182.592 186.216 181.504 185.064C180.48 183.848 179.296 181.8 177.952 178.92C176.416 175.912 175.168 173.928 174.208 172.968C173.248 172.008 171.84 171.528 169.984 171.528C167.36 171.528 164.832 173.16 162.4 176.424C159.968 179.624 157.76 184.456 155.776 190.92C154.112 196.36 153.28 200.904 153.28 204.552C153.28 207.752 153.888 210.152 155.104 211.752C156.32 213.288 157.952 214.056 160 214.056C163.008 214.056 165.472 213.384 167.392 212.04C169.376 210.696 171.392 208.872 173.44 206.568C174.72 205.16 175.744 204.136 176.512 203.496C177.344 202.792 178.208 202.44 179.104 202.44C180.256 202.44 181.472 203.016 182.752 204.168C184.032 205.32 184.64 206.472 184.576 207.624C184.64 209.032 183.488 211.208 181.12 214.152C178.816 217.096 175.584 219.752 171.424 222.12C167.328 224.424 162.656 225.576 157.408 225.576ZM273.435 161.064C274.779 161.064 275.803 161.288 276.507 161.736C277.275 162.184 277.659 162.76 277.659 163.464C277.659 163.784 277.563 164.2 277.371 164.712C277.179 165.16 276.891 165.576 276.507 165.96C276.187 166.28 275.867 166.536 275.547 166.728C275.291 166.856 275.099 166.984 274.971 167.112C273.947 167.688 273.115 168.328 272.475 169.032C271.835 169.736 271.291 170.824 270.843 172.296L259.035 213.672C258.779 214.504 258.651 215.304 258.651 216.072C258.651 216.84 258.747 217.448 258.939 217.896C259.195 218.344 259.547 218.92 259.995 219.624C260.059 219.688 260.219 219.944 260.475 220.392C260.795 220.776 260.955 221.192 260.955 221.64C260.955 221.768 260.891 222.088 260.763 222.6C260.443 223.496 259.835 224.136 258.939 224.52C258.043 224.84 256.699 225 254.907 225H232.347C231.003 225 229.947 224.776 229.179 224.328C228.475 223.88 228.123 223.272 228.123 222.504C228.123 222.12 228.219 221.704 228.411 221.256C228.667 220.744 229.019 220.328 229.467 220.008C229.915 219.624 230.363 219.304 230.811 219.048C231.835 218.472 232.667 217.832 233.307 217.128C233.947 216.36 234.491 215.208 234.939 213.672L239.547 197.64H222.555L217.947 213.672C217.691 214.504 217.563 215.304 217.563 216.072C217.563 216.84 217.659 217.448 217.851 217.896C218.107 218.344 218.459 218.92 218.907 219.624C218.971 219.688 219.131 219.944 219.387 220.392C219.707 220.776 219.867 221.192 219.867 221.64C219.867 221.768 219.803 222.088 219.675 222.6C219.355 223.496 218.747 224.136 217.851 224.52C216.955 224.84 215.611 225 213.819 225H191.259C189.915 225 188.891 224.776 188.187 224.328C187.419 223.88 187.035 223.272 187.035 222.504C187.035 222.12 187.131 221.704 187.323 221.256C187.579 220.744 187.931 220.328 188.379 220.008C188.827 219.624 189.275 219.304 189.723 219.048C190.747 218.472 191.579 217.832 192.219 217.128C192.859 216.36 193.403 215.208 193.851 213.672L205.659 172.296C205.915 171.464 206.043 170.664 206.043 169.896C206.043 169.192 205.915 168.616 205.659 168.168C205.467 167.656 205.179 167.08 204.795 166.44C204.539 166.12 204.315 165.8 204.123 165.48C203.931 165.096 203.835 164.712 203.835 164.328C203.835 164.2 203.899 163.88 204.027 163.368C204.283 162.536 204.859 161.96 205.755 161.64C206.651 161.256 207.995 161.064 209.787 161.064H232.347C233.691 161.064 234.715 161.288 235.419 161.736C236.187 162.184 236.571 162.76 236.571 163.464C236.571 163.784 236.475 164.2 236.283 164.712C236.091 165.16 235.803 165.576 235.419 165.96C235.099 166.28 234.779 166.536 234.459 166.728C234.203 166.856 234.011 166.984 233.883 167.112C232.859 167.688 232.027 168.328 231.387 169.032C230.747 169.736 230.203 170.824 229.755 172.296L225.243 188.04H242.235L246.747 172.296C247.003 171.464 247.131 170.664 247.131 169.896C247.131 169.192 247.003 168.616 246.747 168.168C246.555 167.656 246.267 167.08 245.883 166.44C245.627 166.12 245.403 165.8 245.211 165.48C245.019 165.096 244.923 164.712 244.923 164.328C244.923 164.2 244.987 163.88 245.115 163.368C245.371 162.536 245.947 161.96 246.843 161.64C247.739 161.256 249.083 161.064 250.875 161.064H273.435ZM328.25 174.024C329.466 169.608 331.162 166.28 333.338 164.04C335.578 161.8 338.65 160.68 342.554 160.68C345.626 160.68 348.09 161.672 349.946 163.656C351.802 165.576 352.73 167.976 352.73 170.856C352.73 171.816 352.57 172.936 352.25 174.216C351.546 177.032 350.298 179.08 348.506 180.36C346.714 181.576 344.762 182.184 342.65 182.184C341.562 182.184 340.57 182.12 339.674 181.992C338.842 181.8 338.042 181.576 337.274 181.32L331.61 202.152C329.562 209.768 326.138 215.592 321.338 219.624C316.538 223.592 310.01 225.576 301.754 225.576C294.202 225.576 288.314 224.136 284.09 221.256C279.93 218.376 277.85 213.896 277.85 207.816C277.85 204.872 278.362 201.64 279.386 198.12L286.682 172.296C286.938 171.464 287.066 170.664 287.066 169.896C287.066 169.128 286.938 168.52 286.682 168.072C286.49 167.56 286.202 166.984 285.818 166.344C285.242 165.512 284.954 164.84 284.954 164.328C284.954 164.072 285.018 163.752 285.146 163.368C285.402 162.536 285.978 161.96 286.874 161.64C287.77 161.256 289.082 161.064 290.81 161.064H313.37C316.122 161.064 317.498 161.896 317.498 163.56C317.498 163.944 317.466 164.264 317.402 164.52C317.21 165.096 316.922 165.576 316.538 165.96C316.218 166.28 315.706 166.664 315.002 167.112C313.978 167.688 313.146 168.328 312.506 169.032C311.866 169.736 311.322 170.824 310.874 172.296L302.522 201.672C301.946 203.848 301.658 205.704 301.658 207.24C301.658 211.528 303.962 213.672 308.57 213.672C311.386 213.672 313.722 212.776 315.578 210.984C317.498 209.128 319.098 205.992 320.378 201.576L328.25 174.024Z" fill="#1E1C1C"/>
<path d="M199.784 231.064C202.408 231.064 203.72 231.896 203.72 233.56C203.72 234.008 203.688 234.328 203.624 234.52C203.432 235.16 203.144 235.672 202.76 236.056C202.376 236.376 201.832 236.76 201.128 237.208C200.168 237.784 199.368 238.424 198.728 239.128C198.088 239.832 197.544 240.92 197.096 242.392L185.192 285.016C184.104 288.856 182.728 291.544 181.064 293.08C179.464 294.616 177.224 295.384 174.344 295.384C171.784 295.384 169.64 294.648 167.912 293.176C166.248 291.64 164.68 289.304 163.208 286.168L148.712 255.64L140.648 283.672C140.456 284.504 140.36 285.24 140.36 285.88C140.36 286.712 140.488 287.416 140.744 287.992C141.064 288.504 141.48 289.048 141.992 289.624C142.696 290.456 143.048 291.16 143.048 291.736C143.048 292.12 143.016 292.408 142.952 292.6C142.696 293.496 142.12 294.136 141.224 294.52C140.328 294.84 138.984 295 137.192 295H126.728C124.104 295 122.792 294.168 122.792 292.504C122.792 292.056 122.824 291.736 122.888 291.544C123.08 290.904 123.368 290.424 123.752 290.104C124.136 289.72 124.68 289.304 125.384 288.856C126.344 288.28 127.144 287.64 127.784 286.936C128.424 286.232 128.968 285.144 129.416 283.672L141.608 240.568L140.072 237.4C139.432 236.12 139.112 235 139.112 234.04C139.112 232.056 140.392 231.064 142.952 231.064H157.16C159.208 231.064 160.744 231.544 161.768 232.504C162.856 233.4 164.008 235.032 165.224 237.4L179.24 265.528L185.864 242.392C186.056 241.496 186.152 240.76 186.152 240.184C186.152 239.352 185.992 238.68 185.672 238.168C185.416 237.592 185.032 237.016 184.52 236.44C183.816 235.608 183.464 234.904 183.464 234.328C183.464 233.944 183.496 233.656 183.56 233.464C183.816 232.568 184.392 231.96 185.288 231.64C186.184 231.256 187.528 231.064 189.32 231.064H199.784ZM267.928 230.68C270.616 230.68 272.856 231.544 274.648 233.272C276.44 235 277.336 237.336 277.336 240.28C277.336 243.608 276.344 246.296 274.36 248.344C272.376 250.392 270.008 251.416 267.256 251.416C265.464 251.416 263.928 251.096 262.648 250.456C261.368 249.816 260.152 248.792 259 247.384L250.744 254.296L260.056 281.848C260.632 283.448 261.24 284.728 261.88 285.688C262.584 286.648 263.416 287.608 264.376 288.568C265.08 289.272 265.56 289.848 265.816 290.296C266.136 290.68 266.296 291.16 266.296 291.736C266.296 292.76 265.816 293.56 264.856 294.136C263.96 294.712 262.36 295 260.056 295H247.48C244.344 295 242.008 294.328 240.472 292.984C239 291.576 237.784 289.272 236.824 286.072L232.024 269.944L229.24 272.248L226.072 283.672C225.816 284.504 225.688 285.304 225.688 286.072C225.688 286.84 225.784 287.48 225.976 287.992C226.232 288.504 226.584 289.048 227.032 289.624C227.608 290.456 227.896 291.128 227.896 291.64C227.896 291.768 227.832 292.088 227.704 292.6C227.448 293.496 226.872 294.136 225.976 294.52C225.08 294.84 223.736 295 221.944 295H199.384C198.04 295 197.016 294.776 196.312 294.328C195.544 293.88 195.16 293.272 195.16 292.504C195.16 292.12 195.256 291.704 195.448 291.256C195.704 290.552 196.12 290.008 196.696 289.624C197.272 289.24 197.624 289.016 197.752 288.952C198.776 288.312 199.608 287.672 200.248 287.032C200.888 286.328 201.432 285.208 201.88 283.672L213.592 242.296C213.848 241.464 213.976 240.664 213.976 239.896C213.976 239.192 213.848 238.616 213.592 238.168C213.4 237.656 213.112 237.08 212.728 236.44C212.152 235.608 211.864 234.936 211.864 234.424C211.864 234.232 211.928 233.88 212.056 233.368C212.312 232.536 212.856 231.96 213.688 231.64C214.584 231.256 215.928 231.064 217.72 231.064H240.28C241.624 231.064 242.648 231.288 243.352 231.736C244.12 232.12 244.504 232.696 244.504 233.464C244.504 233.784 244.408 234.2 244.216 234.712C244.024 235.16 243.736 235.576 243.352 235.96C243.032 236.28 242.712 236.536 242.392 236.728C242.136 236.856 241.944 236.984 241.816 237.112C240.792 237.688 239.96 238.328 239.32 239.032C238.68 239.736 238.136 240.824 237.688 242.296L233.656 256.6L259.096 234.616C260.76 233.208 262.264 232.216 263.608 231.64C264.952 231 266.392 230.68 267.928 230.68ZM344.108 230.68C346.924 230.68 349.228 231.608 351.02 233.464C352.812 235.256 353.708 237.56 353.708 240.376C353.708 240.76 353.644 241.464 353.516 242.488C353.004 245.56 351.788 247.832 349.868 249.304C348.012 250.776 345.836 251.512 343.34 251.512C341.676 251.512 340.268 251.256 339.116 250.744C337.964 250.232 336.876 249.368 335.852 248.152L320.012 268.792L315.596 283.672C315.468 284.056 315.404 284.568 315.404 285.208C315.404 286.104 315.628 286.872 316.076 287.512C316.524 288.088 317.164 288.728 317.996 289.432C318.7 290.072 319.212 290.616 319.532 291.064C319.852 291.512 319.916 292.024 319.724 292.6C319.468 293.496 318.828 294.136 317.804 294.52C316.844 294.84 315.5 295 313.772 295H289.58C287.916 295 286.668 294.712 285.836 294.136C285.068 293.496 284.812 292.632 285.068 291.544C285.196 290.968 285.42 290.52 285.74 290.2C286.124 289.816 286.7 289.368 287.468 288.856C288.428 288.28 289.228 287.64 289.868 286.936C290.508 286.168 291.052 285.08 291.5 283.672L295.916 268.696L287.084 243.544C286.444 241.688 285.676 240.28 284.78 239.32C283.948 238.296 282.956 237.304 281.804 236.344C281.1 235.832 280.588 235.384 280.268 235C279.948 234.616 279.788 234.168 279.788 233.656C279.788 232.888 280.108 232.28 280.748 231.832C281.452 231.32 282.444 231.064 283.724 231.064H309.356C311.596 231.064 313.132 231.256 313.964 231.64C314.796 232.024 315.244 232.696 315.308 233.656C315.308 234.232 315.18 234.744 314.924 235.192C314.668 235.576 314.284 236.056 313.772 236.632C313.196 237.4 312.748 238.04 312.428 238.552C312.172 239 312.044 239.576 312.044 240.28C312.044 240.472 312.108 240.888 312.236 241.528L316.652 258.424L328.844 241.048C331.468 237.336 333.932 234.68 336.236 233.08C338.604 231.48 341.228 230.68 344.108 230.68Z" fill="#1E1C1C"/>
<circle cx="281" cy="125" r="14" fill="#95DCCB"/>
<circle cx="340" cy="100" r="14" fill="#95DCCB"/>
<path fill-rule="evenodd" clip-rule="evenodd" d="M354 24H235V125H239V69C239 61.268 245.268 55 253 55C260.732 55 267 61.268 267 69V125H295.046V70C295.046 62.268 301.889 56 310.33 56C318.771 56 325.615 62.268 325.615 70V100H354V24Z" fill="#95DCCB"/>
<circle cx="73" cy="129" r="14" fill="#95DCCB"/>
<path fill-rule="evenodd" clip-rule="evenodd" d="M87 53H-32V154H-28V98C-28 90.268 -21.732 84 -14 84C-6.26801 84 0 90.268 0 98V154H28.0458V99C28.0458 91.268 34.8889 85 43.3302 85C51.7716 85 58.6147 91.268 58.6147 99V154H58.6147V129H87V53Z" fill="#95DCCB"/>
<circle cx="166" cy="112" r="14" fill="#95DCCB"/>
<circle cx="225" cy="87" r="14" fill="#95DCCB"/>
<path fill-rule="evenodd" clip-rule="evenodd" d="M239 11H120V112H124V56C124 48.268 130.268 42 138 42C145.732 42 152 48.268 152 56V112H180.046V57C180.046 49.268 186.889 43 195.33 43C203.772 43 210.615 49.268 210.615 57V112H210.615V87H239V11Z" fill="#95DCCB"/>
<circle cx="386" cy="259" r="14" fill="#C4C4C4"/>
<circle cx="93" cy="186" r="14" fill="#C4C4C4"/>
<rect x="91" y="38" width="40" height="95" fill="white"/>
<path d="M241.937 76.6444L260.104 96.3226L217.488 135.666L199.321 115.988C199.321 115.988 238.198 112.69 239.462 82.1928C240.726 51.6953 241.937 76.6444 241.937 76.6444Z" fill="white"/>
<path d="M154.938 131.074V134.32H159.637V135.469H154.938V143.449C154.945 143.941 155.02 144.352 155.16 144.68C155.309 145 155.504 145.262 155.746 145.465C155.996 145.66 156.285 145.801 156.613 145.887C156.949 145.973 157.312 146.016 157.703 146.016C158.094 146.016 158.492 145.988 158.898 145.934C159.312 145.879 159.664 145.824 159.953 145.77L160.164 146.836C159.828 146.969 159.418 147.066 158.934 147.129C158.449 147.199 157.957 147.234 157.457 147.234C156.895 147.234 156.375 147.164 155.898 147.023C155.422 146.891 155.008 146.676 154.656 146.379C154.305 146.074 154.027 145.684 153.824 145.207C153.621 144.723 153.516 144.133 153.508 143.438V135.469H149.98V134.32H153.508V131.074H154.938ZM166.082 136.77C166.527 135.957 167.121 135.309 167.863 134.824C168.605 134.34 169.453 134.094 170.406 134.086C171.102 134.086 171.715 134.195 172.246 134.414C172.785 134.625 173.234 134.938 173.594 135.352C173.961 135.758 174.238 136.262 174.426 136.863C174.621 137.457 174.719 138.137 174.719 138.902V147H173.312V138.902C173.312 138.34 173.246 137.836 173.113 137.391C172.98 136.945 172.777 136.57 172.504 136.266C172.238 135.953 171.902 135.715 171.496 135.551C171.09 135.387 170.613 135.305 170.066 135.305C169.621 135.305 169.195 135.375 168.789 135.516C168.383 135.656 168.008 135.852 167.664 136.102C167.32 136.352 167.012 136.648 166.738 136.992C166.473 137.328 166.254 137.699 166.082 138.105V147H164.676V129H166.082V136.77ZM184.504 147.234C183.621 147.234 182.816 147.07 182.09 146.742C181.363 146.414 180.738 145.969 180.215 145.406C179.699 144.844 179.297 144.188 179.008 143.438C178.727 142.68 178.582 141.875 178.574 141.023V140.52C178.582 139.613 178.73 138.77 179.02 137.988C179.316 137.207 179.719 136.527 180.227 135.949C180.734 135.371 181.332 134.918 182.02 134.59C182.707 134.254 183.445 134.086 184.234 134.086C185.078 134.086 185.824 134.238 186.473 134.543C187.121 134.848 187.664 135.266 188.102 135.797C188.547 136.32 188.883 136.934 189.109 137.637C189.344 138.34 189.465 139.094 189.473 139.898V140.754H179.98V141.023C179.988 141.688 180.102 142.324 180.32 142.934C180.539 143.535 180.848 144.066 181.246 144.527C181.645 144.988 182.125 145.359 182.688 145.641C183.25 145.914 183.875 146.051 184.562 146.051C185.344 146.059 186.051 145.914 186.684 145.617C187.316 145.32 187.855 144.891 188.301 144.328L189.191 144.996C188.957 145.324 188.68 145.629 188.359 145.91C188.039 146.184 187.68 146.418 187.281 146.613C186.891 146.809 186.461 146.961 185.992 147.07C185.523 147.18 185.027 147.234 184.504 147.234ZM184.234 135.281C183.664 135.281 183.141 135.391 182.664 135.609C182.188 135.82 181.77 136.117 181.41 136.5C181.051 136.883 180.754 137.336 180.52 137.859C180.285 138.375 180.125 138.941 180.039 139.559H188.066V139.406C188.051 138.883 187.953 138.375 187.773 137.883C187.602 137.383 187.352 136.941 187.023 136.559C186.703 136.176 186.309 135.867 185.84 135.633C185.371 135.398 184.836 135.281 184.234 135.281Z" fill="black"/>
<path d="M190.922 331.166C190.922 330.58 190.775 330.07 190.482 329.637C190.189 329.203 189.785 328.834 189.27 328.529C188.766 328.213 188.18 327.949 187.512 327.738C186.844 327.527 186.135 327.346 185.385 327.193C184.471 327.006 183.586 326.783 182.73 326.525C181.875 326.256 181.113 325.916 180.445 325.506C179.777 325.096 179.244 324.598 178.846 324.012C178.447 323.414 178.248 322.682 178.248 321.814C178.248 320.994 178.453 320.262 178.863 319.617C179.273 318.973 179.812 318.428 180.48 317.982C181.148 317.537 181.91 317.203 182.766 316.98C183.621 316.746 184.5 316.629 185.402 316.629C186.434 316.629 187.395 316.758 188.285 317.016C189.188 317.262 189.973 317.631 190.641 318.123C191.32 318.604 191.859 319.195 192.258 319.898C192.656 320.602 192.873 321.404 192.908 322.307H190.799C190.775 321.697 190.611 321.152 190.307 320.672C190.002 320.18 189.598 319.77 189.094 319.441C188.59 319.113 188.016 318.861 187.371 318.686C186.738 318.51 186.082 318.422 185.402 318.422C184.77 318.422 184.148 318.492 183.539 318.633C182.941 318.762 182.402 318.967 181.922 319.248C181.453 319.518 181.072 319.863 180.779 320.285C180.498 320.695 180.357 321.182 180.357 321.744C180.346 322.342 180.48 322.846 180.762 323.256C181.055 323.654 181.447 323.994 181.939 324.275C182.432 324.545 183.006 324.773 183.662 324.961C184.33 325.137 185.039 325.301 185.789 325.453C186.75 325.652 187.664 325.898 188.531 326.191C189.41 326.473 190.184 326.83 190.852 327.264C191.52 327.686 192.047 328.207 192.434 328.828C192.82 329.449 193.014 330.193 193.014 331.061C193.014 331.951 192.797 332.73 192.363 333.398C191.941 334.055 191.379 334.605 190.676 335.051C189.984 335.484 189.188 335.807 188.285 336.018C187.395 336.24 186.475 336.352 185.525 336.352C184.459 336.352 183.451 336.223 182.502 335.965C181.564 335.707 180.732 335.338 180.006 334.857C179.291 334.365 178.717 333.768 178.283 333.064C177.85 332.361 177.615 331.564 177.58 330.674H179.689C179.76 331.424 179.982 332.051 180.357 332.555C180.744 333.059 181.213 333.463 181.764 333.768C182.326 334.061 182.936 334.271 183.592 334.4C184.248 334.518 184.893 334.576 185.525 334.576C186.17 334.576 186.809 334.512 187.441 334.383C188.086 334.242 188.66 334.037 189.164 333.768C189.68 333.486 190.096 333.135 190.412 332.713C190.74 332.279 190.91 331.764 190.922 331.166ZM198.182 326.209C198.193 324.92 198.393 323.695 198.779 322.535C199.166 321.375 199.717 320.361 200.432 319.494C201.158 318.615 202.043 317.918 203.086 317.402C204.141 316.887 205.33 316.629 206.654 316.629C207.99 316.629 209.18 316.887 210.223 317.402C211.277 317.918 212.168 318.615 212.895 319.494C213.621 320.361 214.178 321.375 214.564 322.535C214.951 323.695 215.15 324.92 215.162 326.209V326.789C215.15 328.078 214.951 329.303 214.564 330.463C214.189 331.623 213.639 332.643 212.912 333.521C212.186 334.389 211.301 335.08 210.258 335.596C209.215 336.1 208.025 336.352 206.689 336.352C205.354 336.352 204.158 336.1 203.104 335.596C202.061 335.08 201.176 334.389 200.449 333.521C199.723 332.643 199.166 331.623 198.779 330.463C198.393 329.303 198.193 328.078 198.182 326.789V326.209ZM200.291 326.789C200.291 327.797 200.432 328.77 200.713 329.707C200.994 330.645 201.404 331.477 201.943 332.203C202.482 332.918 203.145 333.492 203.93 333.926C204.727 334.359 205.646 334.576 206.689 334.576C207.721 334.576 208.629 334.359 209.414 333.926C210.211 333.492 210.873 332.918 211.4 332.203C211.939 331.477 212.35 330.645 212.631 329.707C212.912 328.77 213.053 327.797 213.053 326.789V326.209C213.053 325.213 212.912 324.246 212.631 323.309C212.35 322.371 211.939 321.545 211.4 320.83C210.861 320.104 210.193 319.523 209.396 319.09C208.6 318.645 207.686 318.422 206.654 318.422C205.623 318.422 204.709 318.645 203.912 319.09C203.127 319.523 202.465 320.104 201.926 320.83C201.398 321.545 200.994 322.371 200.713 323.309C200.432 324.246 200.291 325.213 200.291 326.209V326.789ZM233.971 336C233.842 335.613 233.742 335.186 233.672 334.717C233.602 334.236 233.555 333.75 233.531 333.258C233.168 333.703 232.746 334.113 232.266 334.488C231.785 334.863 231.258 335.191 230.684 335.473C230.121 335.742 229.512 335.953 228.855 336.105C228.199 336.27 227.514 336.352 226.799 336.352C225.908 336.352 225.076 336.223 224.303 335.965C223.541 335.707 222.873 335.344 222.299 334.875C221.736 334.406 221.291 333.844 220.963 333.188C220.646 332.52 220.488 331.775 220.488 330.955C220.488 329.865 220.729 328.939 221.209 328.178C221.689 327.416 222.34 326.801 223.16 326.332C223.98 325.852 224.93 325.5 226.008 325.277C227.086 325.055 228.217 324.943 229.4 324.943H233.514V322.781C233.502 322.066 233.361 321.439 233.092 320.9C232.822 320.35 232.453 319.893 231.984 319.529C231.527 319.154 230.977 318.873 230.332 318.686C229.699 318.498 229.008 318.404 228.258 318.404C227.578 318.404 226.928 318.492 226.307 318.668C225.697 318.844 225.152 319.096 224.672 319.424C224.203 319.752 223.822 320.156 223.529 320.637C223.236 321.105 223.078 321.639 223.055 322.236L220.945 322.219C220.98 321.41 221.191 320.666 221.578 319.986C221.977 319.307 222.51 318.721 223.178 318.229C223.846 317.725 224.619 317.332 225.498 317.051C226.389 316.77 227.338 316.629 228.346 316.629C229.354 316.629 230.297 316.758 231.176 317.016C232.066 317.273 232.834 317.66 233.479 318.176C234.135 318.691 234.65 319.336 235.025 320.109C235.412 320.883 235.611 321.785 235.623 322.816V332.027C235.623 332.66 235.676 333.299 235.781 333.943C235.898 334.588 236.039 335.203 236.203 335.789L236.221 336H233.971ZM227.027 334.488C227.766 334.5 228.469 334.412 229.137 334.225C229.816 334.037 230.438 333.779 231 333.451C231.562 333.111 232.061 332.713 232.494 332.256C232.928 331.787 233.268 331.277 233.514 330.727V326.561H229.682C228.756 326.561 227.865 326.631 227.01 326.771C226.154 326.912 225.398 327.146 224.742 327.475C224.086 327.791 223.559 328.219 223.16 328.758C222.773 329.297 222.58 329.971 222.58 330.779C222.58 331.354 222.697 331.869 222.932 332.326C223.166 332.783 223.482 333.176 223.881 333.504C224.279 333.82 224.748 334.066 225.287 334.242C225.826 334.406 226.406 334.488 227.027 334.488ZM257.895 326.684C257.895 327.914 257.742 329.115 257.438 330.287C257.145 331.447 256.688 332.479 256.066 333.381C255.457 334.271 254.684 334.992 253.746 335.543C252.809 336.082 251.695 336.352 250.406 336.352C249.223 336.352 248.139 336.123 247.154 335.666C246.17 335.209 245.344 334.547 244.676 333.68V343.312H242.566V316.98H244.535L244.623 319.582C245.291 318.645 246.111 317.918 247.084 317.402C248.057 316.887 249.152 316.629 250.371 316.629C251.672 316.629 252.797 316.898 253.746 317.438C254.695 317.965 255.475 318.68 256.084 319.582C256.693 320.473 257.145 321.504 257.438 322.676C257.742 323.836 257.895 325.049 257.895 326.314V326.684ZM255.785 326.314C255.785 325.365 255.68 324.422 255.469 323.484C255.258 322.547 254.918 321.709 254.449 320.971C253.98 320.221 253.371 319.617 252.621 319.16C251.883 318.691 250.975 318.457 249.896 318.457C249.287 318.457 248.713 318.545 248.174 318.721C247.646 318.885 247.16 319.125 246.715 319.441C246.281 319.746 245.889 320.115 245.537 320.549C245.197 320.971 244.91 321.439 244.676 321.955V331.377C245.168 332.361 245.871 333.141 246.785 333.715C247.699 334.289 248.748 334.576 249.932 334.576C250.998 334.576 251.9 334.342 252.639 333.873C253.389 333.404 253.992 332.801 254.449 332.062C254.918 331.312 255.258 330.469 255.469 329.531C255.68 328.582 255.785 327.633 255.785 326.684V326.314Z" fill="black"/>
<path d="M288.143 327.984C288.061 329.273 287.779 330.434 287.299 331.465C286.83 332.496 286.197 333.375 285.4 334.102C284.604 334.828 283.654 335.391 282.553 335.789C281.451 336.176 280.232 336.369 278.896 336.369C277.385 336.369 276.043 336.094 274.871 335.543C273.699 334.98 272.715 334.201 271.918 333.205C271.121 332.197 270.512 330.99 270.09 329.584C269.668 328.178 269.457 326.631 269.457 324.943V321.498C269.457 319.799 269.68 318.246 270.125 316.84C270.57 315.434 271.203 314.227 272.023 313.219C272.844 312.211 273.834 311.432 274.994 310.881C276.166 310.318 277.479 310.037 278.932 310.037C280.338 310.037 281.586 310.236 282.676 310.635C283.777 311.033 284.715 311.602 285.488 312.34C286.262 313.078 286.871 313.98 287.316 315.047C287.762 316.113 288.043 317.314 288.16 318.65H283.238C283.191 317.889 283.074 317.221 282.887 316.646C282.711 316.072 282.447 315.598 282.096 315.223C281.756 314.836 281.322 314.549 280.795 314.361C280.279 314.162 279.658 314.062 278.932 314.062C278.17 314.062 277.508 314.227 276.945 314.555C276.383 314.883 275.914 315.363 275.539 315.996C275.176 316.629 274.906 317.408 274.73 318.334C274.555 319.248 274.467 320.291 274.467 321.463V324.943C274.467 327.463 274.818 329.326 275.521 330.533C276.236 331.74 277.361 332.344 278.896 332.344C280.186 332.344 281.205 332.004 281.955 331.324C282.705 330.633 283.121 329.52 283.203 327.984H288.143ZM291.5 326.314C291.5 324.932 291.699 323.654 292.098 322.482C292.496 321.299 293.076 320.273 293.838 319.406C294.611 318.539 295.549 317.859 296.65 317.367C297.764 316.875 299.035 316.629 300.465 316.629C301.895 316.629 303.166 316.875 304.279 317.367C305.393 317.859 306.33 318.539 307.092 319.406C307.865 320.273 308.451 321.299 308.85 322.482C309.248 323.654 309.447 324.932 309.447 326.314V326.684C309.447 328.078 309.248 329.367 308.85 330.551C308.451 331.723 307.871 332.742 307.109 333.609C306.348 334.477 305.41 335.156 304.297 335.648C303.184 336.129 301.918 336.369 300.5 336.369C299.07 336.369 297.793 336.129 296.668 335.648C295.555 335.156 294.611 334.477 293.838 333.609C293.076 332.742 292.496 331.723 292.098 330.551C291.699 329.367 291.5 328.078 291.5 326.684V326.314ZM296.387 326.684C296.387 327.48 296.463 328.23 296.615 328.934C296.768 329.625 297.008 330.234 297.336 330.762C297.664 331.277 298.086 331.688 298.602 331.992C299.129 332.297 299.762 332.449 300.5 332.449C301.215 332.449 301.83 332.297 302.346 331.992C302.861 331.688 303.277 331.277 303.594 330.762C303.922 330.234 304.162 329.625 304.314 328.934C304.467 328.23 304.543 327.48 304.543 326.684V326.314C304.543 325.541 304.467 324.809 304.314 324.117C304.162 323.426 303.922 322.816 303.594 322.289C303.277 321.762 302.861 321.346 302.346 321.041C301.83 320.736 301.203 320.584 300.465 320.584C299.738 320.584 299.117 320.736 298.602 321.041C298.086 321.346 297.664 321.762 297.336 322.289C297.008 322.816 296.768 323.426 296.615 324.117C296.463 324.809 296.387 325.541 296.387 326.314V326.684ZM318.729 333.17C318.729 332.713 318.805 332.291 318.957 331.904C319.109 331.506 319.332 331.166 319.625 330.885C319.918 330.592 320.275 330.363 320.697 330.199C321.119 330.023 321.594 329.936 322.121 329.936C322.648 329.936 323.123 330.023 323.545 330.199C323.967 330.363 324.318 330.592 324.6 330.885C324.893 331.166 325.115 331.506 325.268 331.904C325.432 332.291 325.514 332.713 325.514 333.17C325.514 333.615 325.432 334.031 325.268 334.418C325.115 334.805 324.893 335.145 324.6 335.438C324.318 335.719 323.967 335.941 323.545 336.105C323.123 336.27 322.648 336.352 322.121 336.352C321.594 336.352 321.119 336.27 320.697 336.105C320.275 335.941 319.918 335.719 319.625 335.438C319.332 335.145 319.109 334.805 318.957 334.418C318.805 334.031 318.729 333.615 318.729 333.17Z" fill="black"/>
<rect x="223" y="113" width="25" height="17" fill="white"/>
</g>
</svg>
